<svg xmlns="http://www.w3.org/2000/svg" xml:space="preserve" viewBox="0 0 83.344 22.49"><g><rect fill="#c00000" width="26.723" height="10.848" x="53.975" y="2.71" rx="1.587" ry="1.587"/><g aria-label="Hippo Web"><path fill="#333" d="M22.502 4.321q-.114 0-.2.086-.085.085-.085.2v6.896q0 .114.085.2.086.086.2.086h2.096q.124 0 .21-.086.085-.086.085-.2V8.96h2.43v2.543q0 .114.085.2.086.086.21.086h2.095q.124 0 .21-.086.085-.086.085-.2V4.607q0-.115-.086-.2-.085-.086-.21-.086h-2.095q-.123 0-.21.086-.085.085-.085.2v2.39h-2.429v-2.39q0-.115-.085-.2-.086-.086-.21-.086zM32.35 11.789q.096 0 .162-.086.067-.086.067-.2V6.455q0-.058-.048-.105-.047-.057-.114-.095t-.143-.058q-.067-.028-.114-.028h-1.343q-.105 0-.172.086-.066.085-.066.2v5.048q0 .114.066.2.067.086.172.086zM30.674 4.94q0 .42.238.667.248.238.667.238.428 0 .667-.238.238-.248.238-.667 0-.419-.239-.657-.238-.248-.666-.248-.42 0-.667.248-.238.238-.238.657zM36.74 11.58q1.105 0 1.82-.763.704-.762.704-1.943 0-1.229-.733-1.99v.009q-.733-.8-1.886-.8-.476 0-.905.143-.429.142-.829.476l-.219-.362q-.038-.048-.114-.095-.067-.048-.133-.048h-1.01q-.114 0-.2.086-.086.085-.086.21v6.067q0 .124.086.21.086.085.2.085h1.648q.114 0 .2-.086.086-.085.086-.21v-1.314q.314.172.647.248.343.076.724.076zm-.524-3.868q.429 0 .686.352.267.353.267.915 0 .505-.229.8-.228.286-.638.286-.286 0-.59-.153-.23-.114-.353-.21V8.084q.143-.142.362-.257.22-.114.495-.114zM43.407 11.58q1.105 0 1.819-.763.705-.762.705-1.943 0-1.229-.734-1.99v.009q-.733-.8-1.886-.8-.476 0-.904.143-.43.142-.83.476l-.218-.362q-.038-.048-.114-.095-.067-.048-.134-.048h-1.01q-.114 0-.2.086-.085.085-.085.21v6.067q0 .124.085.21.086.085.2.085h1.648q.115 0 .2-.086.086-.085.086-.21v-1.314q.314.172.648.248.343.076.724.076zm-.524-3.868q.428 0 .686.352.266.353.266.915 0 .505-.228.8-.229.286-.638.286-.286 0-.591-.153-.229-.114-.352-.21V8.084q.142-.142.362-.257.219-.114.495-.114zM52.55 9.045q0-1.333-.829-2.105-.838-.762-2.21-.762-1.362 0-2.2.762-.829.772-.829 2.105 0 1.324.829 2.096.819.762 2.2.762 1.39 0 2.21-.762.829-.772.829-2.096zm-2.02 0q0 .534-.266.839-.267.295-.753.295-.476 0-.743-.295-.266-.305-.266-.839 0-.533.266-.828.267-.305.743-.305.486 0 .753.305.266.295.266.828z"/><path fill="#fff" d="M65.787 4.312q-.085 0-.171.057-.086.057-.114.133l-1.143 3.143-1.496-3.162q-.019-.076-.105-.124-.085-.047-.162-.047h-1.295q-.076 0-.162.057-.086.047-.114.114l-1.543 3.172-1.115-3.153q-.028-.076-.124-.133-.085-.057-.161-.057h-2q-.163 0-.258.114-.086.114-.028.276l2.552 7.01q.029.077.115.134.085.057.161.057h1.086q.077 0 .162-.057.086-.048.115-.115L61.9 7.56l2 4.171q.038.077.115.124.076.048.152.048h1.095q.077 0 .162-.057.086-.057.115-.134l2.552-7.01q.057-.162-.028-.276-.086-.114-.248-.114zM72.282 11.084l-.352-.896q-.048-.104-.162-.152-.105-.048-.21 0-.038.02-.133.048l-.267.076q-.314.086-.657.086-.695 0-.981-.286-.095-.086-.171-.248h2.714q.114 0 .19-.086.086-.085.086-.2v-.419q0-1.257-.685-2.028-.715-.8-1.867-.8-1.153 0-1.905.79-.753.781-.753 1.981 0 1.39.838 2.172.839.78 2.239.78.276 0 .552-.037.276-.029.534-.086.257-.067.476-.152.229-.086.4-.2zm-2.886-3.086q.124-.257.381-.257.19 0 .315.19.123.181.161.514h-.99q.038-.266.133-.447zM75.11 4.597q0-.114-.086-.2-.085-.085-.2-.085h-1.647q-.115 0-.2.085-.086.086-.086.2v6.906q0 .114.086.2.085.086.2.086h.876q.067 0 .133-.048.076-.048.114-.105l.267-.486q.124.096.248.181.124.086.267.19.552.382 1.4.382 1.152 0 1.857-.829.667-.79.667-2.105 0-1.314-.648-2.105-.333-.419-.78-.619-.449-.21-1.04-.21-.57 0-1.123.248v-.01q-.086.039-.162.077-.067.028-.143.067zm.22 3.22q.256-.143.523-.143.514 0 .781.362t.267 1.048q0 .542-.229.885-.219.343-.59.343-.334 0-.639-.19h.01l-.2-.134q-.086-.066-.143-.114V7.931q.029-.019.086-.038.057-.029.133-.076z"/></g><g aria-label="Il portale dell'ippica"><path fill="#333" d="M23.002 19.976q.041 0 .067-.033.03-.034.03-.078v-2.682q0-.044-.03-.078-.026-.033-.067-.033h-.689q-.04 0-.07.033-.026.034-.026.078v2.682q0 .044.026.078.03.033.07.033zM23.486 17.072q-.04 0-.066.033-.026.034-.026.078v2.682q0 .044.026.078.026.033.066.033h.597q.037 0 .063-.033.026-.034.026-.078v-2.682q0-.044-.026-.078-.026-.033-.063-.033zM27.033 19.895q.43 0 .707-.297.275-.296.275-.755 0-.478-.286-.775v.004q-.285-.311-.733-.311-.185 0-.352.056-.167.055-.322.185l-.085-.141q-.015-.019-.045-.037-.026-.019-.052-.019h-.392q-.045 0-.078.034-.034.033-.034.081v2.36q0 .048.034.081.033.034.078.034h.64q.045 0 .078-.034.034-.033.034-.081v-.511q.122.066.251.096.134.03.282.03zm-.204-1.504q.167 0 .267.137.104.137.104.355 0 .197-.09.311-.088.112-.247.112-.112 0-.23-.06-.089-.044-.137-.081v-.63q.055-.055.14-.1.086-.044.193-.044zM30.67 18.91q0-.52-.323-.82-.326-.296-.86-.296-.529 0-.855.297-.322.3-.322.818 0 .515.322.815.319.296.856.296.54 0 .86-.296.321-.3.321-.815zm-.786 0q0 .207-.104.325-.103.115-.292.115-.185 0-.29-.115-.103-.118-.103-.326 0-.207.104-.322.104-.119.289-.119.189 0 .292.119.104.115.104.322zM31.68 19.976q.044 0 .074-.03.033-.033.033-.081v-1.082q.033-.048.122-.137.082-.081.148-.081.082 0 .178.126.045.059.108.044t.081-.085l.156-.6q-.015-.033-.048-.074-.03-.045-.078-.082-.045-.04-.104-.066-.06-.03-.126-.03-.152 0-.289.1-.133.096-.26.278l-.077-.256q-.007-.03-.037-.052t-.06-.022h-.433q-.04 0-.074.033-.03.03-.03.075v1.91q0 .05.03.082.034.03.074.03zM34.012 19.25v-.785h.415q.044 0 .074-.034.033-.033.033-.081v-.396q0-.049-.033-.078-.03-.034-.074-.034h-.415l.004-.566q0-.052-.037-.086-.037-.037-.09-.025l-.618.107q-.037.004-.066.037-.026.033-.026.074v.46h-.3q-.041 0-.074.033-.034.03-.034.078v.396q0 .048.034.081.033.034.074.034h.3v.944q0 .36.177.511.182.152.578.152.074 0 .149-.01.074-.012.159-.03l.133-.034q.06-.015.096-.033.026-.007.045-.037.018-.033.018-.063v-.44q0-.064-.048-.097-.044-.034-.1-.008-.04.019-.115.045-.074.026-.166.026-.041 0-.067-.034-.026-.037-.026-.107zM36.4 19.906q.134.11.326.11l.393-.325q.033-.026.04-.06.008-.033-.003-.062-.011-.03-.04-.049-.027-.022-.067-.022l-.026-.018-.026-.023v-.759q0-.244-.063-.415-.063-.174-.193-.281-.13-.108-.33-.156-.2-.052-.474-.052-.17 0-.322.03t-.293.081q-.14.056-.23.104-.084.045-.125.082-.019.018-.03.055-.007.037.004.067l.14.322q.02.045.064.063.048.015.088-.007.063-.03.134-.06.07-.03.155-.063.093-.037.182-.051.089-.015.185-.015.13 0 .204.055.074.056.078.17l-.312-.014q-.233-.011-.426.044-.188.052-.34.152-.308.211-.308.541 0 .307.2.489.204.181.59.181.196 0 .384-.055.19-.056.356-.14l.037.04.048.04zm-.34-.512q-.123.049-.267.049-.19 0-.19-.093 0-.181.568-.181h.01v.174q-.025.01-.055.026-.03.01-.067.025zM37.518 17.072q-.04 0-.067.033-.026.034-.026.078v2.682q0 .044.026.078.026.033.067.033h.596q.037 0 .063-.033.026-.034.026-.078v-2.682q0-.044-.026-.078-.026-.033-.063-.033zM40.554 19.702l-.137-.348q-.018-.041-.063-.06-.04-.018-.081 0-.015.008-.052.019l-.104.03q-.122.033-.255.033-.27 0-.382-.111-.037-.034-.067-.096h1.056q.044 0 .074-.034.033-.033.033-.078v-.163q0-.489-.266-.789-.278-.31-.726-.31-.448 0-.741.307-.293.303-.293.77 0 .541.326.845.326.303.87.303.108 0 .216-.014.107-.011.207-.034.1-.026.185-.059.09-.033.156-.078zm-1.122-1.2q.048-.1.148-.1.074 0 .122.074.048.07.063.2h-.385q.015-.104.052-.174zM43.815 19.917q.012.022.041.04.03.019.06.019h.34q.045 0 .078-.033.033-.034.033-.078v-2.686q0-.044-.033-.077-.033-.034-.078-.034h-.637q-.048 0-.081.034-.03.033-.03.077v.708q-.033-.019-.067-.03l-.07-.033q-.196-.085-.396-.085-.463 0-.73.318-.256.308-.256.823 0 .514.263.822.274.318.726.318.323 0 .523-.133.059-.04.11-.078.053-.04.104-.081zm-.437-.593q-.122.078-.222.078-.167 0-.26-.126-.088-.13-.088-.352 0-.256.104-.4.103-.148.303-.148.115 0 .197.052.03.015.052.03l.044.018v.763q-.018.015-.052.037l-.078.048zM46.667 19.702l-.137-.348q-.019-.041-.063-.06-.041-.018-.082 0-.015.008-.052.019l-.103.03q-.123.033-.256.033-.27 0-.382-.111-.037-.034-.066-.096h1.055q.045 0 .075-.034.033-.033.033-.078v-.163q0-.489-.267-.789-.278-.31-.726-.31-.448 0-.74.307-.293.303-.293.77 0 .541.326.845.326.303.87.303.108 0 .215-.014.107-.011.207-.034.1-.026.186-.059.089-.033.155-.078zm-1.123-1.2q.048-.1.148-.1.075 0 .123.074.048.07.063.2h-.386q.015-.104.052-.174zM47.077 17.072q-.041 0-.067.033-.026.034-.026.078v2.682q0 .044.026.078.026.033.067.033h.596q.037 0 .063-.033.026-.034.026-.078v-2.682q0-.044-.026-.078-.026-.033-.063-.033zM48.202 17.072q-.041 0-.067.033-.026.034-.026.078v2.682q0 .044.026.078.026.033.067.033h.596q.037 0 .063-.033.026-.034.026-.078v-2.682q0-.044-.026-.078-.026-.033-.063-.033zM49.649 17.468q0-.04-.026-.07-.022-.033-.052-.033h-.259q-.033 0-.056.033-.022.03-.022.07v.982q0 .04.022.07.023.03.056.03h.26q.029 0 .051-.03.026-.03.026-.07zM50.64 19.976q.038 0 .064-.033.026-.034.026-.078v-1.963q0-.023-.019-.041-.018-.022-.044-.037t-.056-.022q-.026-.011-.044-.011h-.523q-.04 0-.066.033-.026.033-.026.078v1.963q0 .044.026.078.026.033.066.033zm-.651-2.663q0 .163.092.259.097.093.26.093.166 0 .259-.093.093-.096.093-.26 0-.162-.093-.255-.093-.096-.26-.096-.162 0-.259.096-.092.093-.092.256zM52.429 19.895q.43 0 .707-.297.274-.296.274-.755 0-.478-.285-.775v.004q-.285-.311-.733-.311-.186 0-.352.056-.167.055-.322.185l-.086-.141q-.014-.019-.044-.037-.026-.019-.052-.019h-.393q-.044 0-.077.034-.034.033-.034.081v2.36q0 .048.034.081.033.034.077.034h.641q.045 0 .078-.034.033-.033.033-.081v-.511q.123.066.252.096.134.03.282.03zm-.204-1.504q.167 0 .267.137.103.137.103.355 0 .197-.088.311-.09.112-.249.112-.11 0-.23-.06-.088-.044-.136-.081v-.63q.055-.055.14-.1.086-.044.193-.044zM55.102 19.895q.43 0 .708-.297.274-.296.274-.755 0-.478-.286-.775v.004q-.285-.311-.733-.311-.185 0-.352.056-.167.055-.322.185l-.085-.141q-.015-.019-.045-.037-.026-.019-.052-.019h-.392q-.045 0-.078.034-.033.033-.033.081v2.36q0 .048.033.081.033.034.078.034h.64q.045 0 .078-.034.034-.033.034-.081v-.511q.122.066.252.096.133.03.281.03zm-.204-1.504q.167 0 .267.137.104.137.104.355 0 .197-.09.311-.088.112-.247.112-.111 0-.23-.06-.089-.044-.137-.081v-.63q.056-.055.14-.1.086-.044.193-.044zM57.075 19.976q.037 0 .063-.033.026-.034.026-.078v-1.963q0-.023-.018-.041-.019-.022-.045-.037t-.055-.022q-.026-.011-.045-.011h-.522q-.04 0-.067.033-.026.033-.026.078v1.963q0 .044.026.078.026.033.067.033zm-.652-2.663q0 .163.093.259.096.093.26.093.166 0 .259-.093.092-.096.092-.26 0-.162-.092-.255-.093-.096-.26-.096-.163 0-.259.096-.093.093-.093.256zM59.312 19.313q.007-.052-.026-.089-.03-.037-.082-.037-.026 0-.04.007-.015.004-.034.015h.008l-.063.022-.097.038q-.152.059-.278.059-.23 0-.337-.097-.107-.096-.107-.3 0-.23.1-.359.1-.13.278-.13.144 0 .292.06.086.033.141.059.056.026.085.048.063.04.119.008.055-.037.048-.112l-.048-.488q0-.023-.022-.052-.023-.03-.041-.037-.096-.045-.245-.09-.144-.044-.374-.044-.515 0-.818.308-.152.155-.23.363-.074.203-.074.47 0 .497.3.793.304.292.796.292.193 0 .382-.048.193-.052.244-.081.015-.008.034-.034.022-.03.022-.048zM61.163 19.906q.133.11.326.11l.392-.325q.034-.026.041-.06.007-.033-.004-.062-.01-.03-.04-.049-.026-.022-.067-.022l-.026-.018-.026-.023v-.759q0-.244-.063-.415-.063-.174-.193-.281-.13-.108-.33-.156-.2-.052-.473-.052-.17 0-.323.03-.151.03-.292.081-.141.056-.23.104-.085.045-.126.082-.018.018-.03.055-.007.037.004.067l.141.322q.019.045.063.063.048.015.089-.007.063-.03.133-.06t.156-.063q.092-.037.181-.051.09-.015.185-.015.13 0 .204.055.074.056.078.17l-.311-.014q-.234-.011-.426.044-.189.052-.34.152-.308.211-.308.541 0 .307.2.489.203.181.589.181.196 0 .385-.055.189-.056.355-.14l.038.04.048.04zm-.341-.512q-.122.049-.267.049-.189 0-.189-.093 0-.181.567-.181h.011v.174q-.026.01-.055.026-.03.01-.067.025z"/></g><g aria-label="loghino"><path fill="#14552b" d="M6.628 22.188c-1.93-.297-3.617-1.37-4.846-3.079-.627-.871-1.023-2.024-1.214-3.537-.086-.67-.072-2.402.024-3.038.38-2.533 1.746-5.413 3.609-7.616.59-.698 1.768-1.78 1.937-1.78.056 0 1.466.593 1.506.633.01.01-.195.238-.456.507-2.141 2.206-3.353 4.295-3.73 6.434-.107.6-.107 1.639 0 2.191.225 1.171.735 2.148 1.541 2.952 1.087 1.083 2.464 1.659 3.973 1.66 2.823.004 4.968-2.034 5.722-5.436.372-1.682.42-3.625.142-5.826-.029-.233-.043-.424-.03-.424.012 0 .388.122.834.27.67.222.817.286.836.36.051.204.199 1.562.24 2.212.15 2.3-.101 4.542-.719 6.455-1.194 3.697-3.774 6.29-6.944 6.98-.34.074-.61.097-1.297.108-.477.008-.985-.004-1.128-.026z"/><path fill="#c00000" d="M7.952 16.308c-.687-.18-1.302-.66-1.616-1.26a2.35 2.35 0 0 1-.294-1.203c0-.713.205-1.222.702-1.746.242-.255.386-.363.661-.499.577-.284 1.082-.357 1.65-.236a2.543 2.543 0 0 1 1.955 1.864c.086.335.085.917-.002 1.254-.228.884-.955 1.598-1.861 1.828-.321.082-.88.08-1.195-.002z"/><g fill="#f9b700"><path d="M12.301 8.257c-.243-.184-.423-.292-.455-.273-.03.017-.206.147-.393.288-.187.141-.348.249-.358.238-.01-.01.05-.22.134-.468.083-.248.151-.456.151-.462 0-.007-.18-.145-.4-.306l-.402-.294.995-.044.316-.955.3.955 1.027.025-.83.613.167.495c.092.272.163.494.159.494-.005 0-.19-.138-.41-.306zM12.908 4.651c.218-.652.22-.66.134-.728-.048-.037-.3-.224-.56-.415l-.473-.347 1.386-.044.402-1.258.204.639.204.639 1.388.024-.526.384c-.289.212-.535.41-.547.442-.012.032.067.333.177.67.109.336.198.62.198.63 0 .011-.247-.163-.55-.387l-.55-.407-.502.378c-.276.208-.525.392-.554.409-.028.017.048-.266.17-.629zM10.389 4.152c-.367-.274-.692-.488-.723-.477-.031.012-.336.23-.678.486-.341.255-.626.447-.633.425-.007-.02.103-.385.245-.81l.258-.772L7.46 1.969l1.718-.024.235-.733c.278-.87.295-.907.336-.737.016.069.127.432.246.808l.216.682 1.699.024-.677.497c-.373.274-.677.513-.677.531 0 .018.116.39.258.825.142.435.254.795.25.8-.005.004-.31-.217-.675-.49z"/></g></g><path fill="#333" d="m51.854 13.94-.667-1.889 1.22.075-2.888-3.166-.254 4.278.9-.826.669 1.889z"/></g></svg>
